<?xml version="1.0" encoding="utf-8"?>
<!-- Generator: Adobe Illustrator 24.3.0, SVG Export Plug-In . SVG Version: 6.00 Build 0)  -->
<svg version="1.1" id="Layer_1" xmlns="http://www.w3.org/2000/svg" xmlns:xlink="http://www.w3.org/1999/xlink" x="0px" y="0px"
	 viewBox="0 0 100 100" style="enable-background:new 0 0 100 100;" xml:space="preserve">
<style type="text/css">
	.st0{fill:#13BEF9;}
	.st1{fill-rule:evenodd;clip-rule:evenodd;fill:#FFFFFF;}
</style>
<circle class="st0" cx="50" cy="50" r="49.5"/>
<g>
	<path class="st1" d="M72.1,28.4L54.6,18.3v-3h-2.2v2.9l0,0L34.8,28.4h-8.6v2.2h15.5v4.8v0.6v5h5.6v-5v-0.6v-4.8h5.1v30.1
		c0.1,0,1.6,0,2.2,0.3V30.6h1.5v30.6c0.8,0.4,1.6,0.9,2.2,1.6V30.6h17.4v-2.2H72.1z M46.3,35.5h-3.5v-4.8h3.5V35.5z M39.2,28.4
		l13.3-7.7v7.7H39.2z M54.6,20.9l13.1,7.6H54.6V20.9z"/>
	<path class="st1" d="M27.5,56.6c0,3.5,1.7,6.7,4.4,8.6c0.7-0.2,1.4-0.3,2.1-0.3c0.3,0,0.5,0,0.8,0c0.8-3.4,4-5.7,7.7-5.7
		c2.1,0,4.2,0.6,5.6,1.9c0.7-1.4,0.9-2.9,0.9-4.6c0-1.9-0.5-3.7-1.4-5.3H29C28,52.9,27.5,54.7,27.5,56.6z"/>
	<path class="st1" d="M60.1,69.1c0-4.1-3.3-7.4-7.4-7.4c-1.6,0-3,0.5-4.2,1.3c-1.4-1.6-3.4-2.6-5.6-2.6c-3.5,0-6.4,2.4-7.2,5.7h0
		c-0.3,0-0.5,0-0.8,0c-4.1,0-7.4,3.3-7.4,7.4s3.3,7.4,7.4,7.4c0.5,0,1-0.1,1.5-0.2c1.2,2.4,3.7,4,6.6,4c2.5,0,4.7-1.2,6-3.1
		c1.3,1.1,2.9,1.7,4.7,1.7c4.1,0,7.4-3.3,7.4-7.4c0-1.6-0.5-3.2-1.4-4.4C59.9,70.7,60.1,69.9,60.1,69.1z"/>
	<rect x="29.2" y="38.6" class="st1" width="5.3" height="5.3"/>
	<rect x="29.3" y="44.9" class="st1" width="5.3" height="5.3"/>
	<rect x="35.6" y="44.9" class="st1" width="5.2" height="5.3"/>
	<rect x="35.6" y="38.7" class="st1" width="5.2" height="5.3"/>
	<rect x="41.9" y="44.9" class="st1" width="5.2" height="5.3"/>
</g>
</svg>
